# xmcd
#
# Track frame offsets:
# 183
# 7625
# 18265
# 38810
# 49950
# 63655
# 73990
# 79133
# 96413
#
# Disc length: 1651 seconds
#
#
# Revision: 1
# Processed by: cddbd v1.5.2PL0 Copyright (c) Steve Scherf et al.
# Submitted via: FreeRIP 2.951 
#
DISCID=72067109
DTITLE=Pappo - Pappo's Blues
DYEAR=1972
DGENRE=
TTITLE0=Stratocaster Boogie
TTITLE1=Pájaro metálico
TTITLE2=Sucio y desprolijo
TTITLE3=El sur de la ciudad
TTITLE4=Sandwiches de miga
TTITLE5=El brujo y el tiempo
TTITLE6=Trabajando en el ferrocarril
TTITLE7=Caras en el parque
TTITLE8=Siempre es lo mismo nena
EXTD=
EXTT0=
EXTT1=
EXTT2=
EXTT3=
EXTT4=
EXTT5=
EXTT6=
EXTT7=
EXTT8=
PLAYORDER=
